<?xml version="1.0" encoding="UTF-8"?>
<svg id="Layer_2" data-name="Layer 2" xmlns="http://www.w3.org/2000/svg" viewBox="0 0 113 164.1">
  <defs>
    <style>
      .cls-1 {
        fill: #3b82f6;
      }
    </style>
  </defs>
  <g id="Layer_1-2" data-name="Layer 1">
    <g>
      <path class="cls-1" d="m80.5,90.7c-.7-.2-1.3-.4-2-.6-1.3-.4-2.6-.9-3.8-1.4-.1,0-.3-.1-.4-.2-4.1,2.8-7.4,6.5-9.6,10.9,7,3.8,14.9,6.1,23.3,6.5-.7-2-1.1-4-1.1-6.2v-8c-2.2-.2-4.3-.6-6.4-1.1Z"/>
      <path class="cls-1" d="m35.1,26.2v24.1c0,6.8,1.2,13.3,3.5,19.3,3.4-4.1,7.2-7.8,11.4-10.9-.6-2.7-.9-5.5-.9-8.4v-24.1h-14.1Z"/>
      <path class="cls-1" d="m99,79.9v19.9c0,2.1.9,4,2.4,5.3.2.2.4.4.7.5.3.2.6.3.9.5h0c.9.5,2,.7,3.1.7s0,0,.1,0c3.8,0,6.8-3.1,6.9-6.9,0,0,0,0,0-.1v-35.6c0-.2,0-.3,0-.5,0-.8-.2-1.5-.5-2.2-1.1-2.5-3.6-4.3-6.5-4.3h-15.1c-9.5,0-18.5,2.4-26.3,6.6-3.6,1.9-7,4.3-10.1,6.9h0c-3.7,3.2-7,6.9-9.8,10.9-.9,1.3-1.7,2.7-2.5,4.1-.3.5-.5.9-.8,1.4-1.1,2.1-2.1,4.2-2.9,6.5-2.2,6-3.5,12.5-3.5,19.3v37.1H14.1V14.1h88.8c1.2,0,2.3-.3,3.3-.9,2.2-1.2,3.7-3.5,3.7-6.2s-.2-1.9-.6-2.7c-.3-.8-.8-1.4-1.3-2,0,0-.1-.2-.2-.2-1.2-1.2-2.9-2-4.7-2,0,0-.2,0-.3,0H7c-.1,0-.3,0-.4,0-1.8,0-3.4.8-4.6,2-.6.6-1.1,1.3-1.5,2.1,0,0,0,0,0,.1-.4.8-.6,1.8-.6,2.7v150.1c0,2.8,1.6,5.2,4,6.3.9.4,1.9.7,3,.7h35.1c1,0,1.9-.2,2.7-.6,1.7-.7,3-2.1,3.7-3.7.4-.8.6-1.8.6-2.7v-44.1c0-2.9.3-5.7.8-8.4.4-2,1-4,1.7-5.9.8-2.1,1.7-4.1,2.8-6.1,0,0,0,0,0,0,.2-.4.5-.8.7-1.2.6-.9,1.1-1.8,1.8-2.6,1.9-2.6,4-5,6.4-7,3.2-2.8,6.9-5.2,10.8-6.9,5.1-2.2,10.7-3.5,16.7-3.5h8.1v8.7Z"/>
    </g>
  </g>
</svg>